<?xml version="1.0" encoding="UTF-8"?>
<!DOCTYPE svg PUBLIC "-//W3C//DTD SVG 1.1//EN" "http://www.w3.org/Graphics/SVG/1.1/DTD/svg11.dtd">
<svg xmlns="http://www.w3.org/2000/svg" xml:space="preserve" width="186.628mm" height="107.437mm" version="1.1" style="shape-rendering:geometricPrecision; text-rendering:geometricPrecision; image-rendering:optimizeQuality; fill-rule:evenodd; clip-rule:evenodd"
viewBox="0 0 330575 190304"
 xmlns:xlink="http://www.w3.org/1999/xlink">
 <defs>
  <style type="text/css">
   <![CDATA[
    .fil2 {fill:none}
    .fil1 {fill:#FFFFFF}
    .fil3 {fill:#AACC22}
    .fil0 {fill:#0077CC}
   ]]>
  </style>
    <clipPath id="id0">
     <path d="M0 0l330575 0 0 190304 -330575 0 0 -190304z"/>
    </clipPath>
      <mask id="id1">
  <linearGradient id="id2" gradientUnits="userSpaceOnUse" x1="176120" y1="109070" x2="176120" y2="121543">
   <stop offset="0" style="stop-opacity:1; stop-color:white"/>
   <stop offset="0.5" style="stop-opacity:0.5; stop-color:white"/>
   <stop offset="1" style="stop-opacity:0; stop-color:white"/>
  </linearGradient>
       <rect style="fill:url(#id2)" x="25882" y="112863" width="278811" height="108132"/>
      </mask>
 </defs>
  <g id="_841192993600">
   <g style="clip-path:url(#id0)">
    <g>
     <path id="1" class="fil1" style="mask:url(#id1)" d="M165287 112931c76955,0 139338,24176 139338,53999 0,29822 -62383,53998 -139338,53998 -76954,0 -139338,-24176 -139338,-53998 0,-29823 62384,-53999 139338,-53999z"/>
    </g>
   </g>
   <path class="fil1" d="M144212 94336l0 -1765 7721 0 0 -1248 3169 0 0 1248 7881 0 0 1765 -3655 0c541,1812 1734,3012 3575,3599l0 1617c-3630,-737 -5849,-2473 -6664,-5216l-1137 0 0 5436 -3169 0 0 -5436 -1058 0c-811,2743 -3033,4479 -6663,5216l0 -1617c1844,-587 3033,-1787 3578,-3599l-3578 0zm5121 -7935l0 -1765 3169 0 0 -1837 3005 0 0 1837 7233 0 0 1765 -7233 0 0 1834c-55,737 382,1078 1301,1028l2520 0c652,0 950,-269 894,-809l0 -586 2275 0 0 956c55,1518 -759,2251 -2437,2204l-4878 0c-1842,0 -2736,-759 -2680,-2279l0 -2348 -3169 0zm-4955 5289c1026,-1029 1706,-2157 2032,-3380l2517 0c-271,1420 -759,2546 -1463,3380l-3086 0zm1869 -3969c-326,-784 -732,-1492 -1221,-2132l2764 0c488,640 866,1348 1137,2132l-2680 0zm-489 -2718c0,-50 -28,-97 -80,-148 -326,-783 -679,-1445 -1057,-1984l2680 0c544,589 950,1298 1220,2132l-2763 0zm26083 14693l0 -1837c4011,-3034 6313,-6931 6909,-11681l-2277 0c-756,1615 -2219,2891 -4386,3819l0 -1762c1352,-1126 2167,-2916 2437,-5364l3006 0c-107,342 -215,784 -326,1323 0,97 0,172 0,220l4716 0 0 1764c-489,2546 -1138,4556 -1952,6026 703,1959 1979,3818 3820,5583l0 1909c-2655,-1614 -4496,-3257 -5526,-4921 -1300,1567 -3440,3207 -6421,4921zm-6823 -14104l0 -1837 6823 0 0 1837 -1949 0 0 3746 1463 0 0 1766 -1463 0 0 4260c649,-147 1356,-317 2112,-514l0 1765c-1897,783 -4223,1370 -6986,1762l0 -2204c755,-98 1407,-173 1948,-220l0 -4849 -1706 0 0 -1766 1706 0 0 -3746 -1948 0zm24703 13590c-2060,50 -3062,-833 -3006,-2646l0 -13151 17470 0 0 1837 -14464 0 0 11023c-56,881 405,1298 1383,1248l13324 0 0 1689 -14707 0zm14218 -2276c-2978,-589 -5093,-1517 -6338,-2793 -974,1226 -3276,2157 -6906,2793l0 -1470c2763,-734 4386,-1715 4875,-2938l-5121 0 0 -1764 5526 0c0,-195 0,-367 0,-515l0 -1542 -2358 0c-704,636 -1757,1053 -3168,1248l0 -1323c1085,-439 1761,-1395 2031,-2866l2763 0c-162,442 -298,834 -405,1176l8127 0 0 1765 -4064 0 0 1395c0,197 0,417 0,662l4875 0 0 1764 -4469 0c974,1323 2520,2277 4632,2866l0 1542zm2763 -2940l0 -2204c756,-50 1599,-198 2517,-442l0 -2571c-867,-244 -1706,-392 -2517,-442l0 -2276c867,47 1706,194 2517,439l0 -2423 6664 0 0 -1251 3495 0 0 1251 6012 0 0 1909 -12919 0 0 7201c215,3185 -1407,5389 -4874,6612l0 -1838c1189,-830 1733,-2006 1622,-3526l0 -881c-596,197 -1435,345 -2517,442zm8695 5511l0 -1690 1138 0c867,51 1272,-320 1217,-1103l0 -4994c1248,-640 2194,-1399 2846,-2279l-7315 0 0 -1837 11216 0 0 1837c-1086,1225 -2306,2156 -3658,2793l0 4627c107,1812 -922,2696 -3089,2646l-2355 0z"/>
   <path class="fil1" d="M166641 106514c0,109 -36,202 -108,279 -72,77 -159,115 -262,115 -103,0 -190,-38 -262,-115 -72,-77 -108,-170 -108,-279l0 -1003 -4555 0 0 1003c0,109 -36,202 -108,279 -72,77 -159,115 -262,115 -103,0 -190,-38 -262,-115 -72,-77 -108,-170 -108,-279l0 -2795c0,-109 36,-203 108,-279 72,-77 159,-115 262,-115 103,0 190,38 262,115 72,76 108,170 108,279l0 1003 4555 0 0 -1003c0,-109 36,-203 108,-279 72,-77 159,-115 262,-115 103,0 190,38 262,115 72,76 108,170 108,279l0 2795z"/>
   <path class="fil1" d="M167412 103719c0,-109 35,-203 108,-279 71,-77 159,-115 262,-115l5464 0c102,0 190,38 262,115 72,76 108,170 108,279 0,110 -36,203 -108,280 -72,76 -160,114 -262,114l-5464 0c-103,0 -191,-38 -262,-114 -73,-77 -108,-170 -108,-280zm940 3189c-113,0 -226,-26 -339,-78 -113,-52 -213,-125 -301,-218 -87,-93 -159,-205 -215,-337 -57,-131 -85,-279 -85,-444l0 -739c0,-148 40,-247 119,-296 80,-49 204,-74 374,-74l5171 0c103,0 190,38 262,115 72,77 108,170 108,279 0,110 -36,203 -108,280 -72,77 -159,115 -262,115l-4925 0 0 402c0,55 22,103 66,144 44,42 102,62 173,62l4856 0c102,0 190,38 262,115 72,77 108,170 108,280 0,109 -36,202 -108,279 -72,77 -160,115 -262,115l-4894 0z"/>
   <path class="fil1" d="M175042 106760c-78,99 -173,148 -286,148 -102,0 -190,-38 -262,-115 -72,-77 -107,-170 -107,-279 0,-99 25,-179 77,-239l1872 -2687c88,-126 203,-229 347,-308 144,-80 298,-120 463,-120 154,0 300,36 439,107 138,71 252,170 339,296l1873 2671c30,38 56,81 77,127 20,47 30,98 30,153 0,109 -35,202 -107,279 -72,77 -159,115 -262,115 -124,0 -221,-52 -293,-156l-1796 -2556c-36,-44 -81,-92 -135,-144 -54,-52 -109,-78 -165,-78 -57,0 -112,26 -166,78 -54,52 -96,100 -127,144l-1811 2564z"/>
   <path class="fil1" d="M181731 106908c-144,0 -280,-29 -408,-86 -129,-58 -241,-136 -336,-234 -95,-99 -170,-214 -227,-346 -56,-131 -85,-274 -85,-427l0 -2096c0,-109 36,-203 108,-279 72,-77 159,-115 262,-115 98,0 184,38 258,115 75,76 112,170 112,279l0 2096c0,82 30,153 89,214 59,60 127,90 204,90l4624 0c103,0 190,38 262,115 72,77 108,170 108,280 0,109 -36,202 -108,279 -72,77 -159,115 -262,115l-4601 0z"/>
   <path class="fil1" d="M192182 103325c103,0 190,38 262,115 72,76 108,170 108,279 0,110 -36,203 -108,280 -72,76 -159,114 -262,114l-2281 0 0 2401c0,109 -36,202 -108,279 -72,77 -159,115 -262,115 -103,0 -190,-38 -262,-115 -72,-77 -108,-170 -108,-279l0 -2401 -2312 0c-93,-10 -172,-53 -239,-127 -67,-74 -100,-163 -100,-267 0,-109 35,-203 108,-279 71,-77 159,-115 262,-115l5302 0z"/>
   <path class="fil1" d="M199357 106514c0,109 -36,202 -108,279 -71,77 -159,115 -262,115 -102,0 -190,-38 -262,-115 -72,-77 -107,-170 -107,-279l0 -1003 -4555 0 0 1003c0,109 -36,202 -108,279 -72,77 -159,115 -262,115 -103,0 -190,-38 -262,-115 -72,-77 -108,-170 -108,-279l0 -2795c0,-109 36,-203 108,-279 72,-77 159,-115 262,-115 103,0 190,38 262,115 72,76 108,170 108,279l0 1003 4555 0 0 -1003c0,-109 35,-203 107,-279 72,-77 160,-115 262,-115 103,0 191,38 262,115 72,76 108,170 108,279l0 2795z"/>
   <path class="fil1" d="M200128 105116c0,-208 32,-417 96,-628 64,-211 159,-403 282,-576 123,-172 272,-313 447,-423 175,-110 372,-164 593,-164l4493 0c103,0 191,38 262,115 72,76 108,170 108,279 0,110 -36,203 -108,280 -71,76 -159,114 -262,114l-4331 0c-180,0 -325,35 -436,103 -110,69 -197,152 -261,251 -65,99 -108,207 -131,325 -23,117 -35,226 -35,324 0,99 12,207 35,325 23,118 66,226 131,325 64,98 151,182 261,250 111,69 256,103 436,103l4331 0c103,0 191,38 262,115 72,77 108,170 108,280 0,109 -36,202 -108,279 -71,77 -159,115 -262,115l-4570 0c-211,0 -398,-55 -563,-164 -164,-110 -304,-251 -420,-424 -115,-172 -204,-365 -265,-579 -62,-214 -93,-422 -93,-625z"/>
   <path class="fil1" d="M207835 106760c-77,99 -172,148 -285,148 -103,0 -190,-38 -262,-115 -72,-77 -108,-170 -108,-279 0,-99 26,-179 77,-239l1873 -2687c87,-126 203,-229 347,-308 143,-80 298,-120 462,-120 154,0 301,36 439,107 139,71 252,170 340,296l1872 2671c31,38 57,81 77,127 21,47 31,98 31,153 0,109 -36,202 -108,279 -72,77 -159,115 -262,115 -123,0 -221,-52 -293,-156l-1795 -2556c-36,-44 -81,-92 -135,-144 -54,-52 -109,-78 -166,-78 -56,0 -112,26 -166,78 -54,52 -96,100 -127,144l-1811 2564z"/>
   <path class="fil1" d="M218424 105511c139,93 281,193 424,300 144,107 291,223 440,349 56,44 105,95 146,152 41,58 62,125 62,202 0,109 -36,202 -108,279 -72,77 -159,115 -262,115 -88,0 -175,-38 -262,-115 -211,-164 -427,-323 -648,-477 -221,-153 -450,-290 -689,-411 -239,-120 -487,-216 -744,-287 -257,-72 -524,-107 -802,-107l-1533 0c-67,11 -124,44 -170,98 -46,55 -69,124 -69,206l0 699c0,109 -38,202 -112,279 -75,77 -161,115 -258,115 -103,0 -190,-38 -262,-115 -72,-77 -108,-170 -108,-279l0 -790c0,-136 24,-267 73,-390 49,-123 114,-230 196,-321 83,-90 180,-161 293,-213 113,-52 237,-78 370,-78l4085 0c77,0 145,-29 204,-86 60,-58 89,-131 89,-218 0,-83 -29,-154 -89,-214 -59,-60 -127,-91 -204,-91l-4647 0c-103,0 -190,-38 -262,-114 -72,-77 -108,-170 -108,-280 0,-109 36,-203 108,-279 72,-77 159,-115 262,-115l4616 0c144,0 279,29 405,86 126,57 236,136 331,234 95,99 170,214 224,346 54,131 81,273 81,427 0,153 -27,296 -81,427 -54,132 -129,247 -224,345 -95,99 -205,177 -331,235 -126,57 -261,86 -405,86l-31 0z"/>
   <path class="fil1" d="M220267 103719c0,-109 35,-203 108,-279 71,-77 159,-115 261,-115l5465 0c102,0 190,38 262,115 72,76 108,170 108,279 0,110 -36,203 -108,280 -72,76 -160,114 -262,114l-5465 0c-102,0 -190,-38 -261,-114 -73,-77 -108,-170 -108,-280zm940 3189c-113,0 -226,-26 -339,-78 -113,-52 -213,-125 -301,-218 -87,-93 -159,-205 -216,-337 -56,-131 -84,-279 -84,-444l0 -739c0,-148 39,-247 119,-296 80,-49 204,-74 374,-74l5171 0c103,0 190,38 262,115 72,77 108,170 108,279 0,110 -36,203 -108,280 -72,77 -159,115 -262,115l-4925 0 0 402c0,55 22,103 66,144 44,42 102,62 173,62l4856 0c102,0 190,38 262,115 72,77 108,170 108,280 0,109 -36,202 -108,279 -72,77 -160,115 -262,115l-4894 0z"/>
   <polygon class="fil3" points="177146,104924 178561,106908 175730,106908 "/>
   <polygon class="fil3" points="209939,104924 211354,106908 208524,106908 "/>
   <path class="fil1" d="M108900 77252l25257 0c2638,0 4796,2159 4796,4796l0 25258c0,2637 -2158,4795 -4796,4795l-8963 0c3005,-3867 5191,-7247 6563,-10145 1483,-3134 2228,-6100 2228,-8891 0,-3445 -1110,-6115 -3324,-8008 -2213,-1894 -5338,-2845 -9377,-2845 -4251,0 -7536,1012 -9871,3043 -2335,2022 -3498,4905 -3498,8631 0,2898 897,5088 2684,6571 1165,967 2695,1622 4580,1960l4188 -7962 -327 0c-2622,0 -745,-152 -3368,-19 -723,37 -1583,87 -2572,161l346 -5452 13871 0 0 6052 -8582 16904 -9835 0c-2638,0 -4796,-2158 -4796,-4795l0 -25258c0,-2637 2158,-4796 4796,-4796z"/>
   <path class="fil1" d="M143913 104113c-103,0 -190,-38 -262,-114 -72,-77 -108,-170 -108,-280 0,-109 36,-203 108,-279 72,-77 159,-115 262,-115l4616 0c144,0 279,29 405,86 126,57 236,136 331,234 95,99 170,214 224,346 54,131 81,273 81,427 0,186 -28,341 -85,464 -56,123 -132,226 -227,308 -96,83 -207,150 -336,202 -128,52 -264,100 -408,143l-4208 1324c-41,11 -76,22 -104,32 -28,12 -60,17 -97,17 -102,0 -194,-37 -273,-111 -80,-74 -119,-168 -119,-283 0,-94 28,-173 84,-239 57,-66 123,-112 201,-140l4616 -1405c87,-33 149,-71 185,-115 36,-44 54,-110 54,-197 0,-83 -29,-154 -89,-214 -59,-60 -127,-91 -204,-91l-4647 0zm12454 209c0,-585 -275,-997 -898,-997l-4088 0c-144,0 -279,29 -405,86 -126,57 -236,136 -331,234 -95,99 -170,214 -223,346 -55,131 -81,273 -81,427 0,153 26,296 81,427 53,132 128,247 223,345 95,99 205,177 331,235 126,57 261,86 405,86l4008 0c66,11 123,44 169,98 47,55 70,124 70,206l0 13 0 686c0,109 37,202 111,279 75,77 161,115 258,115 103,0 191,-38 263,-115 71,-77 107,-170 107,-279 0,-732 0,-1462 0,-2192zm-1151 400l-3866 0c-77,0 -145,-29 -204,-86 -59,-58 -89,-131 -89,-218 0,-83 30,-154 89,-214 59,-60 127,-91 204,-91l3849 0c477,0 482,609 17,609z"/>
  </g>
</svg>
