<?xml version="1.0" encoding="UTF-8" standalone="no"?>
<!-- Created with Inkscape (http://www.inkscape.org/) -->

<svg
   xmlns:dc="http://purl.org/dc/elements/1.1/"
   xmlns:cc="http://creativecommons.org/ns#"
   xmlns:rdf="http://www.w3.org/1999/02/22-rdf-syntax-ns#"
   xmlns:svg="http://www.w3.org/2000/svg"
   xmlns="http://www.w3.org/2000/svg"
   xmlns:xlink="http://www.w3.org/1999/xlink"
   xmlns:sodipodi="http://sodipodi.sourceforge.net/DTD/sodipodi-0.dtd"
   xmlns:inkscape="http://www.inkscape.org/namespaces/inkscape"
   width="1200"
   height="1200"
   viewBox="0 0 1200 1200"
   id="svg2"
   version="1.1"
   inkscape:version="0.91 r13725"
   sodipodi:docname="logo.svg">
  <defs
     id="defs4">
    <linearGradient
       inkscape:collect="always"
       id="linearGradient4423">
      <stop
         style="stop-color:#ffffff;stop-opacity:0.8;"
         offset="0"
         id="stop4425" />
      <stop
         style="stop-color:#ffffff;stop-opacity:0.2;"
         offset="1"
         id="stop4427" />
    </linearGradient>
    <linearGradient
       inkscape:collect="always"
       xlink:href="#linearGradient4423"
       id="linearGradient4429"
       x1="722.06812"
       y1="942.10614"
       x2="722.06812"
       y2="1002.1061"
       gradientUnits="userSpaceOnUse" />
    <linearGradient
       inkscape:collect="always"
       xlink:href="#linearGradient4423"
       id="linearGradient4431"
       x1="722.06812"
       y1="702.10614"
       x2="722.06812"
       y2="902.10614"
       gradientUnits="userSpaceOnUse" />
    <linearGradient
       inkscape:collect="always"
       xlink:href="#linearGradient4423"
       id="linearGradient4545"
       gradientUnits="userSpaceOnUse"
       x1="700"
       y1="700"
       x2="700"
       y2="900" />
    <linearGradient
       inkscape:collect="always"
       xlink:href="#linearGradient4423"
       id="linearGradient4547"
       gradientUnits="userSpaceOnUse"
       x1="700"
       y1="700"
       x2="700"
       y2="900" />
    <linearGradient
       inkscape:collect="always"
       xlink:href="#linearGradient4423"
       id="linearGradient4549"
       gradientUnits="userSpaceOnUse"
       x1="700"
       y1="700"
       x2="700"
       y2="900" />
    <linearGradient
       inkscape:collect="always"
       xlink:href="#linearGradient4423"
       id="linearGradient4551"
       gradientUnits="userSpaceOnUse"
       x1="700"
       y1="900"
       x2="700"
       y2="1000" />
    <linearGradient
       inkscape:collect="always"
       xlink:href="#linearGradient4423"
       id="linearGradient4553"
       gradientUnits="userSpaceOnUse"
       x1="700"
       y1="900"
       x2="700"
       y2="1000" />
    <linearGradient
       inkscape:collect="always"
       xlink:href="#linearGradient4423"
       id="linearGradient4555"
       gradientUnits="userSpaceOnUse"
       x1="700"
       y1="900"
       x2="700"
       y2="1000" />
    <linearGradient
       inkscape:collect="always"
       xlink:href="#linearGradient4423"
       id="linearGradient4557"
       gradientUnits="userSpaceOnUse"
       x1="700"
       y1="900"
       x2="700"
       y2="1000" />
    <linearGradient
       inkscape:collect="always"
       xlink:href="#linearGradient4423"
       id="linearGradient4559"
       gradientUnits="userSpaceOnUse"
       x1="700"
       y1="900"
       x2="700"
       y2="1000" />
    <linearGradient
       inkscape:collect="always"
       xlink:href="#linearGradient4423"
       id="linearGradient4561"
       gradientUnits="userSpaceOnUse"
       x1="700"
       y1="900"
       x2="700"
       y2="1000" />
    <linearGradient
       inkscape:collect="always"
       xlink:href="#linearGradient4423"
       id="linearGradient4563"
       gradientUnits="userSpaceOnUse"
       x1="700"
       y1="900"
       x2="700"
       y2="1000" />
    <linearGradient
       inkscape:collect="always"
       xlink:href="#linearGradient4423"
       id="linearGradient4565"
       gradientUnits="userSpaceOnUse"
       x1="700"
       y1="900"
       x2="700"
       y2="1000" />
    <linearGradient
       inkscape:collect="always"
       xlink:href="#linearGradient4423"
       id="linearGradient4567"
       gradientUnits="userSpaceOnUse"
       x1="700"
       y1="900"
       x2="700"
       y2="1000" />
    <linearGradient
       inkscape:collect="always"
       xlink:href="#linearGradient4423"
       id="linearGradient4569"
       gradientUnits="userSpaceOnUse"
       x1="700"
       y1="900"
       x2="700"
       y2="1000" />
    <linearGradient
       inkscape:collect="always"
       xlink:href="#linearGradient4423"
       id="linearGradient4571"
       gradientUnits="userSpaceOnUse"
       x1="700"
       y1="900"
       x2="700"
       y2="1000" />
    <linearGradient
       inkscape:collect="always"
       xlink:href="#linearGradient4423"
       id="linearGradient4573"
       gradientUnits="userSpaceOnUse"
       x1="700"
       y1="900"
       x2="700"
       y2="1000" />
    <linearGradient
       inkscape:collect="always"
       xlink:href="#linearGradient4423"
       id="linearGradient4575"
       gradientUnits="userSpaceOnUse"
       x1="700"
       y1="900"
       x2="700"
       y2="1000" />
    <linearGradient
       inkscape:collect="always"
       xlink:href="#linearGradient4423"
       id="linearGradient4577"
       gradientUnits="userSpaceOnUse"
       x1="700"
       y1="900"
       x2="700"
       y2="1000" />
    <linearGradient
       inkscape:collect="always"
       xlink:href="#linearGradient4423"
       id="linearGradient4579"
       gradientUnits="userSpaceOnUse"
       x1="700"
       y1="900"
       x2="700"
       y2="1000" />
    <linearGradient
       inkscape:collect="always"
       xlink:href="#linearGradient4423"
       id="linearGradient4581"
       gradientUnits="userSpaceOnUse"
       x1="700"
       y1="900"
       x2="700"
       y2="1000" />
  </defs>
  <sodipodi:namedview
     id="base"
     pagecolor="#ffffff"
     bordercolor="#666666"
     borderopacity="1.0"
     inkscape:pageopacity="0.0"
     inkscape:pageshadow="2"
     inkscape:zoom="1"
     inkscape:cx="839.16065"
     inkscape:cy="517.14286"
     inkscape:document-units="px"
     inkscape:current-layer="layer1"
     showgrid="true"
     units="px"
     inkscape:window-width="1920"
     inkscape:window-height="1018"
     inkscape:window-x="-8"
     inkscape:window-y="-8"
     inkscape:window-maximized="1">
    <inkscape:grid
       type="xygrid"
       id="grid4583" />
  </sodipodi:namedview>
  <metadata
     id="metadata7">
    <rdf:RDF>
      <cc:Work
         rdf:about="">
        <dc:format>image/svg+xml</dc:format>
        <dc:type
           rdf:resource="http://purl.org/dc/dcmitype/StillImage" />
        <dc:title></dc:title>
      </cc:Work>
    </rdf:RDF>
  </metadata>
  <g
     inkscape:label="Layer 1"
     inkscape:groupmode="layer"
     id="layer1"
     transform="translate(0,147.63784)">
    <g
       id="g3359"
       transform="translate(54.468902,288.89916)">
      <path
         id="path3337"
         d="m 283.527,304.75 c 0,-16.365 -13.266,-29.632 -29.631,-29.632 l -21.646,0 c -16.365,0 -29.632,-13.267 -29.632,-29.631 l 0,-5.291 c 0,-21.625 -17.53,-39.156 -39.155,-39.156 -21.625,0 -39.155,17.531 -39.155,39.156 l 0,5.291 c 0,16.364 -13.267,29.631 -29.632,29.631 l -21.647,0 c -16.365,0 -29.631,13.267 -29.631,29.632 l 0,8.679 240.129,0 0,-8.679 z"
         style="fill:#c3c6c8"
         inkscape:connector-curvature="0" />
      <g
         id="g3339">
        <circle
           id="circle3341"
           r="125.654"
           cy="125.654"
           cx="163.463"
           style="fill:#e8e8e8" />
        <circle
           id="circle3343"
           r="78.998001"
           cy="125.654"
           cx="163.463"
           style="fill:#61b4e4" />
        <circle
           id="circle3345"
           r="55.870998"
           cy="125.654"
           cx="163.463"
           style="fill:#333e48" />
        <circle
           id="circle3347"
           r="27.348"
           cy="125.654"
           cx="163.463"
           style="fill:#1e252b" />
        <circle
           id="circle3349"
           r="16.226"
           cy="108.831"
           cx="186.392"
           style="fill:#7d868c" />
      </g>
      <path
         id="path3351"
         d="m 43.398,309.195 0,9.553 c 0,4.516 3.661,8.178 8.178,8.178 l 223.774,0 c 4.517,0 8.178,-3.662 8.178,-8.178 l 0,-9.553 -240.13,0 z"
         style="fill:#333e48"
         inkscape:connector-curvature="0" />
    </g>
    <g
       style="font-style:normal;font-weight:normal;font-size:90px;line-height:125%;font-family:sans-serif;letter-spacing:0px;word-spacing:0px;fill:url(#linearGradient4431);fill-opacity:1;stroke:none;stroke-width:1px;stroke-linecap:butt;stroke-linejoin:miter;stroke-opacity:1"
       id="text4237"
       transform="translate(17.9319,-399.74401)">
      <path
         d="m 515.83701,718.01014 q 0,-2.42 1.98,-4.4 2.2,-2.2 4.62,-2.2 l 12.54,0 q 1.98,0 3.74,1.54 1.98,1.54 2.64,3.52 l 54.56,0 q 0.22,-2.42 2.2,-4.18 1.98,-1.98 4.4,-1.98 l 12.76,0 q 2.42,0 4.4,2.2 2.2,1.98 2.2,4.4 l 0,105.38 q 0,2.42 -2.2,4.62 -1.98,1.98 -4.4,1.98 l -12.76,0 q -2.42,0 -4.62,-1.98 -1.98,-2.2 -1.98,-4.62 l 0,-95.26 -54.34,0 0,100.1 q 0,2.42 -2.2,4.62 -1.98,1.98 -4.4,1.98 l -12.54,0 q -2.42,0 -4.62,-1.98 -1.98,-2.2 -1.98,-4.62 l 0,-109.12 z m -27.5,175.56 q 17.82,-12.32 30.58,-24.42 12.76,-12.1 20.9,-25.52 8.36,-13.42 12.32,-29.04 3.96,-15.84 3.96,-35.42 l 0,-23.54 q 0,-2.42 1.98,-4.4 2.2,-2.2 4.62,-2.2 l 11.44,0 q 2.42,0 4.4,2.2 2.2,1.98 2.2,4.4 l 0,13.2 q 0,28.82 -5.28,50.16 l 0.44,0 q 2.42,0.22 3.96,0.22 1.76,0 3.08,0 3.3,0 5.28,1.54 2.2,1.32 2.2,4.84 l 0,33 q 0,3.52 0.44,5.5 0.44,1.98 1.54,3.08 1.1,0.88 3.08,1.32 2.2,0.22 5.5,0.44 6.82,0.44 15.18,0.22 8.36,-0.22 14.74,-0.66 4.84,0 3.3,5.06 -0.66,2.42 -1.76,5.5 -0.88,3.3 -2.42,6.82 -1.76,4.18 -3.3,5.28 -1.54,1.32 -4.4,1.76 -2.2,0.22 -6.38,0.22 -3.96,0.22 -8.58,0.22 -4.62,0 -9.46,-0.22 -4.84,0 -8.36,-0.44 -5.06,-0.44 -9.24,-1.98 -4.18,-1.54 -7.26,-4.84 -2.86,-3.08 -4.62,-8.36 -1.54,-5.28 -1.54,-13.64 l 0,-21.12 q -5.06,9.46 -11.88,17.38 -6.82,7.92 -16.06,14.96 -9.24,7.04 -20.9,13.2 -11.66,6.38 -25.96,12.32 -1.1,0.44 -2.42,-0.44 -1.1,-0.66 -1.98,-1.76 -0.66,-1.1 -0.66,-2.64 0,-1.32 1.32,-2.2 z m -58.74,-62.92 q 8.58,-11 15.4,-20.9 6.82,-10.12 12.32,-19.36 5.5,-9.46 9.9,-18.04 4.4,-8.8 7.7,-17.16 l -36.52,0 q -1.76,0 -3.08,-1.32 -1.1,-1.32 -1.1,-3.08 l 0,-3.74 q 0,-1.76 1.1,-3.08 1.32,-1.32 3.08,-1.32 l 40.92,0 0.66,-1.54 q 1.32,-4.18 3.74,-4.62 2.64,-0.66 7.04,0.88 3.08,1.1 5.5,2.2 2.42,1.1 5.5,2.86 2.42,1.54 3.08,3.52 0.88,1.98 -0.44,5.28 -4.4,10.34 -10.34,20.24 -5.72,9.9 -12.76,19.58 0.44,1.32 0.44,2.2 l 0,1.98 q 7.26,3.3 13.86,7.04 6.6,3.74 11,7.48 4.18,3.74 4.18,7.7 0.22,3.74 -1.76,8.58 -1.1,2.2 -3.08,5.06 -1.98,2.86 -4.4,4.62 -3.08,2.42 -5.72,1.76 -2.64,-0.66 -4.4,-5.94 -1.98,-5.72 -4.4,-11.44 -2.2,-5.94 -5.28,-12.76 l 0,85.58 q 0,2.42 -1.98,4.4 -1.98,2.2 -4.4,2.2 l -11.66,0 q -2.42,0 -4.4,-2.2 -1.98,-1.98 -1.98,-4.4 l 0,-74.58 q -11,10.34 -23.1,18.48 -1.1,0.66 -2.2,0.22 -0.88,-0.66 -1.76,-1.76 -0.66,-1.32 -1.1,-2.64 -0.22,-1.32 0.44,-1.98 z m 19.36,-122.76 q -1.1,-1.76 0.88,-3.74 2.2,-1.98 3.96,-1.54 7.48,1.76 14.3,5.06 6.82,3.08 10.56,5.72 3.74,2.86 4.18,6.16 0.44,3.08 -1.32,7.48 -2.42,5.72 -6.16,9.46 -3.74,3.74 -7.92,3.08 -4.18,-0.66 -6.16,-6.38 -2.2,-6.6 -5.28,-12.76 -2.86,-6.16 -7.04,-12.54 z"
         style="font-style:normal;font-variant:normal;font-weight:bold;font-stretch:normal;font-size:220px;font-family:HYRunYuan;-inkscape-font-specification:'HYRunYuan Bold';fill:url(#linearGradient4545);fill-opacity:1"
         id="path4279"
         inkscape:connector-curvature="0" />
      <path
         d="m 697.11701,710.31014 q 0,-6.82 6.38,-6.82 l 9.68,0 q 6.38,0 6.38,6.82 l 0,23.1 25.74,0 q 3.52,0 3.52,4.18 l 0,2.2 q 0,1.76 -1.1,3.08 -0.88,1.32 -2.42,1.32 l -25.74,0 0,30.8 26.62,0 q 1.76,0 2.64,1.32 1.1,1.32 1.1,3.08 l 0,3.08 q 0,1.76 -1.1,3.08 -0.88,1.1 -2.64,1.1 l -29.48,0 0,44.22 q 2.42,-5.06 4.62,-10.34 2.2,-5.5 4.18,-11.44 1.1,-3.52 3.74,-4.18 2.64,-0.88 5.72,0.66 3.74,1.76 6.38,3.08 2.64,1.1 5.06,2.86 3.74,2.42 3.74,4.4 0.22,1.76 -1.76,5.94 -6.6,13.86 -15.18,25.52 -8.36,11.44 -19.58,21.12 -11.22,9.46 -25.74,17.16 -14.52,7.92 -33.22,14.08 -1.32,0.44 -2.42,-0.44 -0.88,-0.88 -1.32,-2.2 -0.44,-1.1 -0.66,-2.42 0,-1.1 0.66,-1.54 20.68,-13.2 34.54,-24.86 14.08,-11.66 23.32,-24.64 l -7.48,0 q -3.08,0 -5.28,-1.76 -1.98,-1.76 -1.98,-5.5 l 0,-49.72 -38.5,0 q -1.54,0 -2.64,-1.1 -1.1,-1.32 -1.1,-3.08 l 0,-3.08 q 0,-1.76 1.1,-3.08 1.1,-1.32 2.64,-1.32 l 9.9,0 0,-47.74 q 0,-3.74 1.76,-5.28 1.76,-1.54 4.84,-1.54 l 7.7,0 q 6.38,0 6.38,6.82 l 0,47.74 11,0 0,-64.68 z m 55.44,46.64 q 0,-2.42 1.98,-4.4 2.2,-2.2 4.84,-2.2 l 9.24,0 q 2.2,0 3.96,1.54 1.98,1.32 2.64,3.3 l 7.26,0 q 0.22,-7.7 0.22,-14.52 0,-6.82 -0.22,-14.08 l -35.86,0 q -1.76,0 -3.08,-1.1 -1.1,-1.1 -1.1,-2.64 l 0,-3.52 q 0,-1.32 1.1,-2.42 1.1,-1.32 2.86,-1.32 l 99.88,0 q 1.54,0 2.64,1.32 1.32,1.1 1.32,2.42 l 0,3.52 q 0,1.54 -1.1,2.64 -1.1,1.1 -2.64,1.1 l -34.32,0 q -3.96,7.26 -9.02,14.3 -4.84,7.04 -11,14.3 l 29.04,0 q 0.22,-2.42 2.2,-4.18 2.2,-1.98 4.62,-1.98 l 9.9,0 q 2.42,0 4.62,2.2 2.2,1.98 2.2,4.4 l 0,88.66 q 0,2.42 -2.2,4.62 -2.2,1.98 -4.62,1.98 l -9.9,0 q -2.42,0 -4.62,-1.98 -2.2,-2.2 -2.2,-4.62 l 0,-78.54 -45.76,0 0,80.08 q 0,2.42 -2.2,4.62 -1.98,1.98 -4.62,1.98 l -9.24,0 q -2.64,0 -4.84,-1.98 -1.98,-2.2 -1.98,-4.62 l 0,-88.88 z m -30.36,137.94 q 18.48,-7.92 30.8,-15.62 12.54,-7.7 20.02,-16.94 7.48,-9.24 10.56,-20.68 3.3,-11.44 3.08,-27.06 l 0,-26.62 q 0,-2.42 2.2,-4.4 2.2,-2.2 4.62,-2.2 l 10.12,0 q 2.42,0 4.62,2.2 2.2,1.98 2.2,4.4 l 0,26.84 q 0,21.78 -5.94,36.52 6.38,2.2 12.54,4.62 6.38,2.42 11.88,5.06 5.5,2.64 9.9,5.28 4.62,2.42 7.7,4.62 3.96,2.86 5.06,5.72 1.1,2.86 0.22,7.7 -0.44,2.42 -1.1,5.28 -0.66,2.86 -2.2,5.5 -0.88,1.98 -2.64,3.08 -1.54,1.32 -3.52,1.54 -1.98,0.44 -4.18,-0.44 -2.2,-0.66 -3.96,-3.08 -5.5,-7.48 -14.52,-17.16 -8.8,-9.68 -19.36,-19.14 -4.62,7.7 -11.66,13.86 -6.82,6.16 -16.28,11.22 -9.46,5.06 -21.34,9.24 -11.88,4.18 -26.4,7.92 -0.88,0.22 -1.76,-0.66 -0.88,-0.88 -1.32,-2.2 -0.44,-1.32 -0.44,-2.64 0.22,-1.32 1.1,-1.76 z m -72.38,-37.62 q 6.38,-12.54 11,-26.18 4.84,-13.64 7.26,-25.52 0.44,-1.98 2.2,-3.08 1.98,-1.1 3.96,-0.66 l 12.54,4.62 q 5.06,1.76 3.3,6.82 -2.86,7.26 -7.04,14.52 -4.18,7.26 -9.02,13.64 -4.62,6.38 -9.68,11.66 -5.06,5.28 -9.68,8.8 -0.66,0.44 -1.76,0.22 -0.88,-0.44 -1.76,-1.1 -0.88,-0.88 -1.32,-1.76 -0.44,-1.1 0,-1.98 z"
         style="font-style:normal;font-variant:normal;font-weight:bold;font-stretch:normal;font-size:220px;font-family:HYRunYuan;-inkscape-font-specification:'HYRunYuan Bold';fill:url(#linearGradient4547);fill-opacity:1"
         id="path4281"
         inkscape:connector-curvature="0" />
      <path
         d="m 887.85701,868.93014 q -0.88,-4.18 0.88,-7.04 1.98,-3.08 8.58,-3.52 l 3.96,0 q 5.5,-8.14 10.56,-16.72 5.06,-8.8 9.46,-17.16 4.4,-8.36 8.14,-16.06 3.74,-7.7 6.38,-14.08 l -57.64,0 q -1.54,0 -2.64,-1.1 -1.1,-1.1 -1.1,-2.64 l 0,-4.4 q 0,-1.32 1.1,-2.42 1.1,-1.32 2.64,-1.32 l 188.97999,0 q 1.32,0 2.42,1.32 1.32,1.1 1.32,2.42 l 0,4.4 q 0,1.54 -1.32,2.64 -1.1,1.1 -2.42,1.1 l -92.39999,0 q -10.12,15.84 -22.88,32.56 -12.76,16.72 -26.84,30.58 11.88,-0.44 24.42,-0.88 12.76,-0.66 24.42,-1.1 11.66,-0.66 21.78,-1.1 10.33999,-0.44 17.59999,-0.88 -4.62,-8.36 -9.9,-17.16 -5.27999,-8.8 -11.65999,-18.04 -2.42,-2.86 0.88,-6.16 2.42,-2.42 3.74,-2.42 1.32,-0.22 3.08,0.88 7.03999,3.96 15.83999,10.12 8.8,6.16 17.16,13.2 8.58,6.82 15.4,13.64 7.04,6.82 10.56,12.1 3.3,5.06 3.74,9.68 0.66,4.4 -2.64,11.22 -1.76,3.3 -4.62,7.04 -2.86,3.74 -6.6,7.48 -4.18,3.96 -9.24,3.74 -5.06,-0.22 -8.14,-7.7 -2.42,-5.94 -5.28,-12.32 -2.64,-6.16 -5.72,-12.54 -5.72,1.54 -14.52,3.96 -8.79999,2.2 -19.35999,4.84 -10.34,2.42 -21.78,5.06 -11.44,2.64 -22.44,5.06 -10.78,2.64 -20.46,4.62 -9.68,2.2 -16.72,3.52 -5.06,1.1 -7.92,-0.44 -2.64,-1.54 -3.96,-5.94 -0.22,-0.88 -0.88,-2.86 -0.66,-1.98 -1.32,-4.62 -0.66,-2.42 -1.54,-5.06 -0.66,-2.86 -1.1,-5.5 z m 5.94,-146.08 q 0,-1.32 1.1,-2.42 1.1,-1.32 2.64,-1.32 l 150.69999,0 q 1.32,0 2.42,1.32 1.32,1.1 1.32,2.42 l 0,4.4 q 0,1.54 -1.32,2.64 -1.1,1.1 -2.42,1.1 l -150.69999,0 q -1.54,0 -2.64,-1.1 -1.1,-1.1 -1.1,-2.64 l 0,-4.4 z"
         style="font-style:normal;font-variant:normal;font-weight:bold;font-stretch:normal;font-size:220px;font-family:HYRunYuan;-inkscape-font-specification:'HYRunYuan Bold';fill:url(#linearGradient4549);fill-opacity:1"
         id="path4283"
         inkscape:connector-curvature="0" />
    </g>
    <g
       style="font-style:normal;font-weight:normal;font-size:90px;line-height:125%;font-family:sans-serif;letter-spacing:0px;word-spacing:0px;fill:url(#linearGradient4429);fill-opacity:1;stroke:none;stroke-width:1px;stroke-linecap:butt;stroke-linejoin:miter;stroke-opacity:1"
       id="text4241"
       transform="translate(17.9319,-399.74401)">
      <path
         d="m 410.20899,948.32223 8.64,0 7.84,27.2 q 0.64,2.24 1.12,4.16 0.56,1.92 1.04,3.52 1.6,6.08 2.64,9.44 l 0.32,0 q 2,-6.72 3.2,-11.36 -0.16,0.56 1.6,-5.76 l 7.76,-27.2 8.32,0 -16.4,52.39997 -9.6,0 -16.48,-52.39997 z"
         style="font-style:normal;font-variant:normal;font-weight:600;font-stretch:normal;font-size:80px;font-family:Assistant;-inkscape-font-specification:'Assistant Semi-Bold';fill:url(#linearGradient4551);fill-opacity:1"
         id="path4246"
         inkscape:connector-curvature="0" />
      <path
         d="m 458.71649,961.60223 8.08,0 0,39.11997 -8.08,0 0,-39.11997 z m 4.08,-7.36 q -2.16,0 -3.6,-1.36 -1.36,-1.36 -1.36,-3.52 0,-2.08 1.36,-3.44 1.44,-1.36 3.6,-1.36 2.16,0 3.52,1.36 1.44,1.36 1.44,3.44 0,2.16 -1.44,3.52 -1.36,1.36 -3.52,1.36 z"
         style="font-style:normal;font-variant:normal;font-weight:600;font-stretch:normal;font-size:80px;font-family:Assistant;-inkscape-font-specification:'Assistant Semi-Bold';fill:url(#linearGradient4553);fill-opacity:1"
         id="path4248"
         inkscape:connector-curvature="0" />
      <path
         d="m 492.70524,1001.6822 q -7.36,0 -11.76,-5.43997 -4.32,-5.44 -4.32,-15.04 0,-6.16 2.32,-10.8 2.32,-4.72 6.16,-7.2 3.84,-2.56 8.24,-2.56 3.12,0 5.52,1.12 2.4,1.04 5.04,3.28 l -0.32,-6.48 0,-14.56 8.08,0 0,56.71997 -6.64,0 -0.64,-4.39997 -0.24,0 q -2.4,2.4 -5.36,3.91997 -2.96,1.44 -6.08,1.44 z m 1.92,-6.71997 q 2.48,0 4.64,-1.12 2.16,-1.2 4.32,-3.68 l 0,-19.2 q -4,-3.6 -8.64,-3.6 -2.8,0 -5.12,1.68 -2.24,1.68 -3.6,4.8 -1.28,3.12 -1.28,7.28 0,6.64 2.48,10.24 2.56,3.6 7.2,3.6 z"
         style="font-style:normal;font-variant:normal;font-weight:600;font-stretch:normal;font-size:80px;font-family:Assistant;-inkscape-font-specification:'Assistant Semi-Bold';fill:url(#linearGradient4555);fill-opacity:1"
         id="path4250"
         inkscape:connector-curvature="0" />
      <path
         d="m 555.06899,979.12223 q 0,2.24 -0.32,4.16 l -25.84,0 q 0.56,5.92 4,9.04 3.52,3.04 8.48,3.04 4.72,0 9.36,-2.96 l 2.8,5.12 q -6.24,4.15997 -13.2,4.15997 -5.36,0 -9.68,-2.47997 -4.32,-2.48 -6.88,-7.12 -2.48,-4.64 -2.48,-10.88 0,-6.16 2.48,-10.8 2.56,-4.72 6.64,-7.2 4.08,-2.56 8.72,-2.56 7.6,0 11.76,5.04 4.16,4.96 4.16,13.44 z m -7.04,-1.44 q 0,-5.12 -2.24,-7.92 -2.24,-2.8 -6.48,-2.8 -3.68,0 -6.56,2.72 -2.88,2.72 -3.68,8 l 18.96,0 z"
         style="font-style:normal;font-variant:normal;font-weight:600;font-stretch:normal;font-size:80px;font-family:Assistant;-inkscape-font-specification:'Assistant Semi-Bold';fill:url(#linearGradient4557);fill-opacity:1"
         id="path4252"
         inkscape:connector-curvature="0" />
      <path
         d="m 579.86524,1001.6822 q -4.88,0 -9.12,-2.47997 -4.24,-2.48 -6.8,-7.12 -2.48,-4.64 -2.48,-10.88 0,-6.32 2.48,-10.96 2.56,-4.64 6.72,-7.12 4.24,-2.48 9.2,-2.48 4.96,0 9.12,2.48 4.24,2.48 6.72,7.12 2.56,4.64 2.56,10.96 0,6.24 -2.56,10.88 -2.48,4.64 -6.72,7.12 -4.24,2.47997 -9.12,2.47997 z m 0,-6.63997 q 4.64,0 7.36,-3.76 2.72,-3.84 2.72,-10.08 0,-6.24 -2.8,-10.08 -2.72,-3.84 -7.28,-3.84 -4.56,0 -7.36,3.84 -2.72,3.84 -2.72,10.08 0,6.24 2.72,10.08 2.72,3.76 7.36,3.76 z"
         style="font-style:normal;font-variant:normal;font-weight:600;font-stretch:normal;font-size:80px;font-family:Assistant;-inkscape-font-specification:'Assistant Semi-Bold';fill:url(#linearGradient4559);fill-opacity:1"
         id="path4254"
         inkscape:connector-curvature="0" />
      <path
         d="m 644.99274,1001.6822 q -6.64,0 -11.92,-3.19997 -5.28,-3.2 -8.32,-9.28 -3.04,-6.16 -3.04,-14.56 0,-8.32 3.12,-14.48 3.12,-6.16 8.48,-9.44 5.44,-3.36 12.08,-3.36 4.56,0 8.32,1.84 3.84,1.84 6.48,4.72 l -4.4,5.28 q -4.56,-4.72 -10.24,-4.72 -4.56,0 -8.08,2.48 -3.44,2.4 -5.44,6.88 -1.92,4.48 -1.92,10.56 0,9.36 4.08,14.8 4.16,5.36 11.12,5.36 6.56,0 11.6,-5.6 l 4.4,5.12 q -6.48,7.59997 -16.32,7.59997 z"
         style="font-style:normal;font-variant:normal;font-weight:600;font-stretch:normal;font-size:80px;font-family:Assistant;-inkscape-font-specification:'Assistant Semi-Bold';fill:url(#linearGradient4561);fill-opacity:1"
         id="path4256"
         inkscape:connector-curvature="0" />
      <path
         d="m 685.49024,1001.6822 q -4.88,0 -9.12,-2.47997 -4.24,-2.48 -6.8,-7.12 -2.48,-4.64 -2.48,-10.88 0,-6.32 2.48,-10.96 2.56,-4.64 6.72,-7.12 4.24,-2.48 9.2,-2.48 4.96,0 9.12,2.48 4.24,2.48 6.72,7.12 2.56,4.64 2.56,10.96 0,6.24 -2.56,10.88 -2.48,4.64 -6.72,7.12 -4.24,2.47997 -9.12,2.47997 z m 0,-6.63997 q 4.64,0 7.36,-3.76 2.72,-3.84 2.72,-10.08 0,-6.24 -2.8,-10.08 -2.72,-3.84 -7.28,-3.84 -4.56,0 -7.36,3.84 -2.72,3.84 -2.72,10.08 0,6.24 2.72,10.08 2.72,3.76 7.36,3.76 z"
         style="font-style:normal;font-variant:normal;font-weight:600;font-stretch:normal;font-size:80px;font-family:Assistant;-inkscape-font-specification:'Assistant Semi-Bold';fill:url(#linearGradient4563);fill-opacity:1"
         id="path4258"
         inkscape:connector-curvature="0" />
      <path
         d="m 713.56024,961.60223 6.64,0 0.64,5.44 0.24,0 q 3.12,-3.04 6.16,-4.72 3.12,-1.68 6.8,-1.68 12,0 12,15.44 l 0,24.63997 -8.08,0 0,-23.59997 q 0,-5.04 -1.6,-7.28 -1.52,-2.24 -5.04,-2.24 -2.64,0 -4.72,1.28 -2.08,1.2 -4.96,4.08 l 0,27.75997 -8.08,0 0,-39.11997 z"
         style="font-style:normal;font-variant:normal;font-weight:600;font-stretch:normal;font-size:80px;font-family:Assistant;-inkscape-font-specification:'Assistant Semi-Bold';fill:url(#linearGradient4565);fill-opacity:1"
         id="path4260"
         inkscape:connector-curvature="0" />
      <path
         d="m 772.57524,949.52223 q -5.2,0 -5.2,7.04 l 0,5.04 7.92,0 0,6.48 -7.92,0 0,32.63997 -8.08,0 0,-32.63997 -5.28,0 0,-6.08 5.28,-0.4 0,-4.96 q 0,-6.32 3.04,-9.92 3.04,-3.68 9.28,-3.68 3.52,0 6.88,1.36 l -1.6,6.08 q -2.16,-0.96 -4.32,-0.96 z"
         style="font-style:normal;font-variant:normal;font-weight:600;font-stretch:normal;font-size:80px;font-family:Assistant;-inkscape-font-specification:'Assistant Semi-Bold';fill:url(#linearGradient4567);fill-opacity:1"
         id="path4262"
         inkscape:connector-curvature="0" />
      <path
         d="m 814.08399,1001.6822 q -4.88,0 -9.12,-2.47997 -4.24,-2.48 -6.8,-7.12 -2.48,-4.64 -2.48,-10.88 0,-6.32 2.48,-10.96 2.56,-4.64 6.72,-7.12 4.24,-2.48 9.2,-2.48 4.96,0 9.12,2.48 4.24,2.48 6.72,7.12 2.56,4.64 2.56,10.96 0,6.24 -2.56,10.88 -2.48,4.64 -6.72,7.12 -4.24,2.47997 -9.12,2.47997 z m 0,-6.63997 q 4.64,0 7.36,-3.76 2.72,-3.84 2.72,-10.08 0,-6.24 -2.8,-10.08 -2.72,-3.84 -7.28,-3.84 -4.56,0 -7.36,3.84 -2.72,3.84 -2.72,10.08 0,6.24 2.72,10.08 2.72,3.76 7.36,3.76 z"
         style="font-style:normal;font-variant:normal;font-weight:600;font-stretch:normal;font-size:80px;font-family:Assistant;-inkscape-font-specification:'Assistant Semi-Bold';fill:url(#linearGradient4569);fill-opacity:1"
         id="path4264"
         inkscape:connector-curvature="0" />
      <path
         d="m 842.15399,961.60223 6.64,0 0.64,5.44 0.24,0 q 3.12,-3.04 6.16,-4.72 3.12,-1.68 6.8,-1.68 12,0 12,15.44 l 0,24.63997 -8.08,0 0,-23.59997 q 0,-5.04 -1.6,-7.28 -1.52,-2.24 -5.04,-2.24 -2.64,0 -4.72,1.28 -2.08,1.2 -4.96,4.08 l 0,27.75997 -8.08,0 0,-39.11997 z"
         style="font-style:normal;font-variant:normal;font-weight:600;font-stretch:normal;font-size:80px;font-family:Assistant;-inkscape-font-specification:'Assistant Semi-Bold';fill:url(#linearGradient4571);fill-opacity:1"
         id="path4266"
         inkscape:connector-curvature="0" />
      <path
         d="m 923.58649,1001.6822 q -6.64,0 -11.92,-3.19997 -5.28,-3.2 -8.32,-9.28 -3.04,-6.16 -3.04,-14.56 0,-8.32 3.12,-14.48 3.12,-6.16 8.48,-9.44 5.44,-3.36 12.08,-3.36 4.56,0 8.32,1.84 3.84,1.84 6.48,4.72 l -4.4,5.28 q -4.56,-4.72 -10.24,-4.72 -4.56,0 -8.08,2.48 -3.44,2.4 -5.44,6.88 -1.92,4.48 -1.92,10.56 0,9.36 4.08,14.8 4.16,5.36 11.12,5.36 6.56,0 11.6,-5.6 l 4.4,5.12 q -6.48,7.59997 -16.32,7.59997 z"
         style="font-style:normal;font-variant:normal;font-weight:600;font-stretch:normal;font-size:80px;font-family:Assistant;-inkscape-font-specification:'Assistant Semi-Bold';fill:url(#linearGradient4573);fill-opacity:1"
         id="path4268"
         inkscape:connector-curvature="0" />
      <path
         d="m 956.48399,1001.6822 q -4.24,0 -6.16,-2.55997 -1.92,-2.56 -1.92,-7.52 l 0,-47.6 8.08,0 0,48.08 q 0,1.52 0.56,2.24 0.56,0.72 1.36,0.72 0.72,0 1.44,-0.16 l 1.04,6.07997 q -1.84,0.72 -4.4,0.72 z"
         style="font-style:normal;font-variant:normal;font-weight:600;font-stretch:normal;font-size:80px;font-family:Assistant;-inkscape-font-specification:'Assistant Semi-Bold';fill:url(#linearGradient4575);fill-opacity:1"
         id="path4270"
         inkscape:connector-curvature="0" />
      <path
         d="m 985.17774,1001.6822 q -4.88,0 -9.12,-2.47997 -4.24,-2.48 -6.8,-7.12 -2.48,-4.64 -2.48,-10.88 0,-6.32 2.48,-10.96 2.56,-4.64 6.72,-7.12 4.24,-2.48 9.2,-2.48 4.96,0 9.12,2.48 4.24,2.48 6.71996,7.12 2.56,4.64 2.56,10.96 0,6.24 -2.56,10.88 -2.47996,4.64 -6.71996,7.12 -4.24,2.47997 -9.12,2.47997 z m 0,-6.63997 q 4.64,0 7.36,-3.76 2.72,-3.84 2.72,-10.08 0,-6.24 -2.8,-10.08 -2.72,-3.84 -7.28,-3.84 -4.56,0 -7.36,3.84 -2.72,3.84 -2.72,10.08 0,6.24 2.72,10.08 2.72,3.76 7.36,3.76 z"
         style="font-style:normal;font-variant:normal;font-weight:600;font-stretch:normal;font-size:80px;font-family:Assistant;-inkscape-font-specification:'Assistant Semi-Bold';fill:url(#linearGradient4577);fill-opacity:1"
         id="path4272"
         inkscape:connector-curvature="0" />
      <path
         d="m 1024.7677,1001.6822 q -12,0 -12,-15.43997 l 0,-24.64 8.08,0 0,23.6 q 0,5.04 1.52,7.28 1.6,2.24 5.12,2.24 2.72,0 4.8,-1.36 2.08,-1.36 4.64,-4.56 l 0,-27.2 8.08,0 0,39.11997 -6.64,0 -0.64,-5.91997 -0.24,0 q -2.88,3.36 -5.92,5.12 -2.96,1.75997 -6.8,1.75997 z"
         style="font-style:normal;font-variant:normal;font-weight:600;font-stretch:normal;font-size:80px;font-family:Assistant;-inkscape-font-specification:'Assistant Semi-Bold';fill:url(#linearGradient4579);fill-opacity:1"
         id="path4274"
         inkscape:connector-curvature="0" />
      <path
         d="m 1070.8302,1001.6822 q -7.36,0 -11.76,-5.43997 -4.32,-5.44 -4.32,-15.04 0,-6.16 2.32,-10.8 2.32,-4.72 6.16,-7.2 3.84,-2.56 8.24,-2.56 3.12,0 5.52,1.12 2.4,1.04 5.04,3.28 l -0.32,-6.48 0,-14.56 8.08,0 0,56.71997 -6.64,0 -0.64,-4.39997 -0.24,0 q -2.4,2.4 -5.36,3.91997 -2.96,1.44 -6.08,1.44 z m 1.92,-6.71997 q 2.48,0 4.64,-1.12 2.16,-1.2 4.32,-3.68 l 0,-19.2 q -4,-3.6 -8.64,-3.6 -2.8,0 -5.12,1.68 -2.24,1.68 -3.6,4.8 -1.28,3.12 -1.28,7.28 0,6.64 2.48,10.24 2.56,3.6 7.2,3.6 z"
         style="font-style:normal;font-variant:normal;font-weight:600;font-stretch:normal;font-size:80px;font-family:Assistant;-inkscape-font-specification:'Assistant Semi-Bold';fill:url(#linearGradient4581);fill-opacity:1"
         id="path4276"
         inkscape:connector-curvature="0" />
    </g>
  </g>
</svg>
